<?xml version="1.0" encoding="UTF-8" standalone="no"?>
<svg width="60px" height="60px" viewBox="0 0 60 60" version="1.1" xmlns="http://www.w3.org/2000/svg" xmlns:xlink="http://www.w3.org/1999/xlink" xmlns:sketch="http://www.bohemiancoding.com/sketch/ns">
    <!-- Generator: Sketch 3.2.2 (9983) - http://www.bohemiancoding.com/sketch -->
    <title>Addcam</title>
    <desc>Created with Sketch.</desc>
    <defs></defs>
    <g id="stroked" stroke="none" stroke-width="1" fill="none" fill-rule="evenodd" sketch:type="MSPage">
        <g id="Photo" sketch:type="MSLayerGroup" transform="translate(-239.000000, -357.000000)" stroke="#535353" stroke-width="2" stroke-linejoin="round">
            <g id="Addcam" transform="translate(243.000000, 366.000000)" sketch:type="MSShapeGroup">
                <path d="M14.6,9 L3.99400932,9 C1.7899577,9 0,10.789518 0,12.9970002 L0,38.0029998 C0,40.2023415 1.78817888,42 3.99400932,42 L48.0059907,42 C50.2100423,42 52,40.210482 52,38.0029998 L52,12.9970002 C52,10.7976585 50.2118211,9 48.0059907,9 L37.4,9 L35,0 L17,0 L14.6,9 Z" id="Rectangle-2549" stroke-linecap="round"></path>
                <path d="M21,4 L31,4" id="Line" stroke-linecap="square"></path>
                <circle id="Oval-1877" stroke-linecap="round" cx="26" cy="25" r="12"></circle>
                <path d="M26,19 L26,31" id="Line" stroke-linecap="round"></path>
                <path d="M20,25 L32,25" id="Line-433" stroke-linecap="round"></path>
            </g>
        </g>
    </g>
</svg>